Patient4_TMGait_0pt6_02_right_42_EMG.mot
version=1
nRows=41
nColumns=33
inDegrees=no
endheader
time	1LAddLong	2LGlutMax	3LGlutMed	4LIliopsoas	5LSemiMemb	6LBicFemLong	7LRecFem	8LVastMed	9LVastLat	10LGasMed	11LTibAnt	12lTibPost	13LPeroneusLong	14LSol	15LExtDigLong	16LFlexDigLong	17RAddLong	18RGlutMax	19RGlutMed	20RIliopsoas	21RSemiMemb	22RBicFemLong	23RRecFem	24RVastMed	25RVastLat	26RGasMed	27RTibAnt	28RTibPost	29RPeroneusLong	30RSol	31RExtDigLong	32RFlexDigLong
51.14	-0.00885	-0.76218	-0.069733	-0.015411	-0.001831	-0.040588	0.43747	-0.006866	0.14404	-0.050354	0.011292	-0.001068	-0.13611	0.13702	-0.001678	0.00885	-0.042419	-1.8225	-1.9063	-0.032349	0.046692	0.21591	0.92865	0.06012	-0.80307	0.091553	-0.04776	0.14435	0.2388	-0.16434	-0.000458	-0.007629
51.141	-0.016785	-0.72952	-0.065765	-0.014038	0.001831	-0.025482	0.40298	-0.003204	0.1149	-0.072021	0.034027	-0.003815	-0.1091	0.21027	0.013885	0.019684	-0.023193	-2.0042	-2.0531	0.000153	-0.046997	0.33814	0.64072	0.014038	-0.18417	-0.015106	0.032349	0.22247	0.033875	0.47882	-0.00473	-0.006714
51.142	-0.005951	-0.68024	-0.072174	-0.004883	0.005493	-0.038147	0.32852	-0.00351	0.094604	-0.070496	0.037994	-0.002747	-0.094604	0.20844	0.011902	0.010223	0.010986	-2.1063	-1.2242	-0.038757	0.076447	0.36713	0.30487	-0.099335	-0.048523	-0.092468	0.11139	0.12634	-0.17181	0.69015	-0.00061	-0.00946
51.143	-0.016327	-0.66849	-0.055847	-0.00946	-0.001373	-0.011749	0.2272	0.001221	0.07843	-0.088654	-0.041809	-0.003204	-0.092163	0.29602	0.019226	0.014801	0.056	-2.2948	0.24551	0.075836	0.05722	0.24765	-0.10254	-0.21271	0.026855	-0.11108	0.088348	-0.001678	0.51743	0.7373	-0.003662	-0.00824
51.144	-0.017853	-0.6189	-0.050354	0.024261	0.008392	-0.017395	0.19394	0.010223	0.075836	-0.068512	-0.068665	-0.005798	-0.12817	0.24963	0.13611	0.016785	0.050659	-2.4239	-0.24826	0.048523	-0.014496	0.35431	-0.063934	-0.25436	0.057068	-0.11124	0.019989	-0.06073	0.47958	0.2945	-0.00473	-0.003662
51.145	-0.024567	-0.55069	-0.04837	0.044403	0.005646	-0.003357	0.14267	0.009003	0.062561	-0.081787	-0.068054	-0.004578	-0.14572	0.1648	0.11932	0.012054	0.015106	-2.4657	-0.16342	-0.02182	-0.22232	0.70526	0.34714	-0.14297	0.021057	-0.027924	-0.12772	-0.030823	0.42755	0.25452	-0.004425	0.001526
51.146	-0.036011	-0.54428	-0.027924	0.045471	0.008392	-0.023651	0.13565	0.006714	0.041809	-0.091095	-0.078125	-0.00061	-0.11841	0.15396	0.00824	0.025482	-0.10269	-2.4435	-0.62378	-0.053864	-0.37247	1.1765	0.38284	0.20538	0.06073	0.019836	-0.061951	-0.037994	0.47363	0.33539	-0.004883	-0.00824
51.147	-0.027771	-0.49561	-0.027618	0.04425	0.002899	-0.014496	-0.01297	0.013123	0.033264	-0.14465	-0.061951	0.001373	-0.087128	-0.021973	-0.031128	0.026245	-0.12543	-2.4078	-0.76797	-0.168	-0.40955	1.2108	0.23789	0.19928	0.039978	0.065918	-0.093384	-0.032196	0.59372	0.31342	-0.004578	-0.00946
51.148	-0.019379	-0.41748	-0.032959	0.01297	0.00824	-0.024872	0.0177	0.023651	0.044708	0.018768	-0.02121	-0.006409	-0.059509	0.08255	0.067902	0.028839	-0.11704	-2.3979	-0.95856	-0.16876	-0.11124	0.64255	-0.12161	0.36407	0.044556	0.20523	0.0914	-0.052185	-1.429	0.063019	-0.005493	-0.014343
51.149	-0.01297	-0.37018	-0.019531	0.012817	-0.006104	-0.0177	0.22064	0.021667	0.052338	0.16541	-0.028076	-0.006561	-0.040436	0.12711	0.12344	0.028381	-0.10803	-2.4483	-0.72388	-0.2153	-0.090942	-0.1944	-0.65323	0.42252	0.10452	0.14481	0.21774	-0.04715	-0.82672	-0.12711	-0.004883	-0.011902
51.15	-0.007629	-0.31647	-0.02594	0.007935	0.010376	-0.034943	0.34424	0.01709	0.037079	0.030823	0.054932	-0.005493	-0.075836	-0.002747	0.026855	0.027618	-0.075684	-2.4362	-0.27924	-0.055389	0.24674	-0.43121	-0.64819	0.2298	0.12207	0.056763	0.093079	-0.053864	0.019836	-0.34531	-0.003204	-0.006866
51.151	-0.00351	-0.23544	-0.013275	-0.000458	0.001068	-0.010834	0.354	0.021515	0.035553	-0.079041	0.23727	0.006104	-0.11856	0.040131	-0.22659	0.012817	-0.083008	-2.3009	-0.11917	0.11581	0.012512	-0.19547	-0.16602	-0.17105	-0.049744	-0.013275	0.06958	-0.067596	-1.4142	-0.43549	-0.010529	-0.00473
51.152	-0.009918	-0.14694	-0.002899	0.01709	0.001984	-0.020905	0.1767	0.021362	0.02121	-0.061035	0.30594	0.01236	-0.077362	0.13107	0.031281	0.011902	-0.10193	-2.0883	0.20371	0.13504	0.092163	-0.22171	-0.19379	-0.224	-0.15472	-0.12039	0.22492	-0.059509	-2.0117	-0.21362	-0.004272	-0.005493
51.153	-0.001526	-0.056305	-0.001831	0.009155	0.006866	-0.024872	-0.054016	0.023804	0.017548	-0.05661	0.39352	0.021973	-0.10376	0.20111	0.31387	-0.013885	-0.12344	-2.1715	0.049286	0.10483	0.42282	-0.26657	-0.078125	-0.032349	-0.1828	-0.072174	0.42084	-0.073395	-2.9919	-0.2211	-0.005798	0
51.154	-0.007172	0.076294	0.021667	0.010986	0.013428	-0.025024	-0.19775	0.013123	0.030212	0.076752	0.30792	0.026855	-0.14358	0.1796	0.15137	0.006866	-0.0914	-2.0815	-0.18402	0.18478	0.43289	-0.21881	0.006714	0.04303	-0.23254	-0.047607	0.43869	-0.08667	-1.5514	-0.16281	-0.002594	-0.008087
51.155	0.000305	0.2858	0.017853	-0.006104	0.01358	-0.032959	-0.19989	0.021362	0.03067	0.25955	0.088501	0.025635	-0.15182	0.15045	-0.070801	0.014496	-0.059509	-1.8695	-0.29175	0.17212	0.24429	-0.1178	0.026093	0.02655	-0.16571	0.009155	-0.0177	-0.013123	1.149	-0.18539	-0.00061	0.002747
51.156	-0.00885	0.48675	0.06073	-0.004425	0.000916	-0.035706	-0.25513	0.017853	0.040131	0.26993	-0.087738	0.019989	-0.043793	0.17792	0.33768	0.029297	0.00473	-1.6333	-0.066681	0.1471	0.15686	-0.011139	-0.012817	0.05188	0.006409	-0.040436	-0.3122	-0.029449	0.99579	-0.081787	-0.00473	0.001221
51.157	-0.013275	0.63461	0.039825	0.013275	0.005188	-0.036926	-0.06073	0.011902	0.044708	0.23651	-0.21011	0.024567	0.006866	0.289	0.73532	0.03006	0.046997	-1.3991	-0.74402	0.023651	0.075378	0.068817	0.084686	0.25955	0.20752	0.088043	-0.20355	-0.001526	1.7014	0.062866	-0.001221	0.00061
51.158	-0.012512	0.82993	0.020447	0.017395	0.003357	-0.048676	0.13962	0.016632	0.031738	0.12146	-0.058746	0.018311	-0.00946	0.31265	0.65247	0.038147	0.058289	-1.3237	-1.8405	-0.083008	-0.004578	0.027924	0.14648	0.33768	0.18051	0.14557	-0.089722	-0.039063	2.2278	0.22446	-0.003662	-0.01297
51.159	-0.011292	0.94315	-0.029907	-0.011139	0.00885	-0.047607	0.20844	0.010986	0.019073	-0.37399	-0.076904	0.007172	-0.039673	0.26016	-0.578	0.018463	0.044708	-1.395	-2.5302	0.008545	-0.1236	-0.061188	0.24582	0.24567	0.13382	0.14114	-0.23789	0.078125	2.8853	-0.10056	-0.002136	-0.018158
51.16	-0.011749	1.1105	-0.028992	-0.016327	0.017853	-0.036011	0.22079	0.015411	0.03418	-0.45044	-0.19516	0.010986	-0.036621	0.060577	-1.3557	0.006104	0.018768	-1.4122	-2.202	0.14694	-0.31906	0.054169	0.28488	0.060272	0.070496	0.094604	-0.19806	0.046387	-0.050507	-0.39185	-0.005951	-0.007935
51.161	-0.000153	1.259	-0.013428	-0.001831	0.00946	-0.037231	0.20584	0.006866	0.045471	-0.3801	-0.25665	0.007324	0.069885	-0.033569	-1.1856	0.021057	0.007935	-1.2955	-0.85297	0.17151	-0.32867	-0.020142	0.21194	-0.034332	0.04715	-0.011292	-0.11871	0.032043	-0.78766	-0.047913	-0.001068	-0.019531
51.162	-0.006256	1.4081	-0.019226	0.006714	0.01358	-0.037537	0.26184	-0.006104	0.072784	-0.25452	-0.13748	0.001526	0.12131	-0.10498	-0.46417	0.014648	0.034332	-1.0425	-0.0354	0.16449	0.18051	-0.26474	0.15625	-0.14847	0.008392	-0.0177	-0.071564	-0.046234	-0.80276	0.062866	-0.003815	-0.014038
51.163	-0.013733	1.5315	0.01358	0.018158	0.005798	-0.02655	0.23727	-0.015106	0.069733	-0.067139	-0.086365	-0.013885	0.039825	-0.19638	0.24048	0.020599	0.045471	-0.80536	1.5674	-0.085754	0.17822	-0.45136	0.12848	-0.082092	0.036774	0.01297	0.002594	-0.041504	-0.098572	0.004425	-0.001526	-0.007629
51.164	-0.011902	1.6759	0.016632	0.012817	0.005951	-0.019073	0.16464	-0.003815	0.058899	-0.027771	0.075226	-0.005341	-0.046997	-0.10483	0.41657	0.035095	0.04837	-0.65292	0.96359	-0.15549	0.03006	-0.43976	0.13275	-0.036926	0.028229	0.023804	0.020905	-0.013428	0.89416	0.058746	-0.002899	-0.00824
51.165	-0.00351	1.711	-0.030823	0.013885	0.003052	-0.024567	-0.016327	-0.00412	0.04837	-0.072479	0.14664	-0.007782	-0.08255	0.074921	0.087738	0.028687	0.042572	-0.57053	-0.18372	-0.14511	-0.001068	-0.43716	0.10132	-0.00946	0.011444	0.007477	0.03418	-0.013733	0.4509	0.068512	0.001678	-0.007324
51.166	0.003204	1.8034	-0.019379	0.027313	0.003357	-0.027466	-0.19852	-0.03067	0.040588	-0.046082	-0.21454	-0.007782	-0.069122	0.083008	0.019073	0.025024	0.042114	-0.43961	-0.39322	-0.13489	0.006104	-0.21729	0.093536	-0.00824	0.011292	-0.006561	0.062866	0.003357	0.58411	0.11734	0.000763	-0.011749
51.167	0.007324	1.866	-0.001984	0.014954	-0.003662	-0.01297	-0.20523	0.000458	0.035706	-0.020599	-0.17471	-0.010529	-0.077972	0.058594	0.093536	-0.000916	0.019989	-0.35996	-0.46585	-0.13077	-0.009155	0.10178	0.030212	-0.031281	0.023956	-0.008698	0.072174	-0.01709	1.0139	0.094604	0.000305	-0.010376
51.168	0.008392	1.8803	0.002899	-0.001373	-0.004883	-0.015564	-0.11383	0.007935	0.019226	0.018005	-0.054474	-0.00885	-0.12833	0.031891	-0.25314	-0.01709	-0.0177	-0.28961	-0.64743	-0.10712	0.046234	0.10773	0.012665	0.061798	0.045776	-0.036621	0.065918	-0.045929	1.4079	-0.15808	-0.002747	-0.00946
51.169	-0.009003	1.9621	0.024414	-0.011902	-0.001221	-0.015564	0.024872	0.009918	0.022888	0.023346	-0.15243	-0.006714	-0.089569	0.014648	-0.33585	-0.011444	-0.016174	-0.10971	-0.23727	-0.033875	-0.00412	-0.096741	0.001068	0.21881	0.049591	-0.006561	0.19867	0.04715	0.39658	-0.32166	-0.007782	-0.010376
51.17	0.005035	1.9067	0.004578	-0.00885	-0.003052	-0.01297	0.17014	0.015411	0.012512	0.003052	-0.24612	-0.002594	-0.018311	-0.007324	-0.15457	-0.005341	-0.006714	0.079803	-0.35049	0.004578	0.04303	0.001068	0.041809	0.15518	0.025635	0.031281	0.15335	0.037689	-1.2306	-0.36575	-0.003204	-0.010223
51.171	0.007935	1.9737	-0.007172	-0.016327	0.002289	-0.004425	0.31036	0.027466	0.019531	0.019836	-0.16968	-0.001526	-0.012817	-0.088043	-0.32959	-0.007782	0.001373	0.18814	-0.49088	0.028076	0.011139	0.1831	0.12116	0.066223	0.36407	0.034027	-0.017395	0.007629	-1.8828	-0.24674	-0.002289	0.000916
51.172	0.00351	1.88	-0.010223	-0.014648	0.002899	-0.032654	0.34378	0.018005	0.023651	0.039825	-0.07782	0	-0.02182	-0.086365	-0.1944	-0.006561	0.012054	0.31891	-0.46234	0.016785	-0.24765	-0.054779	0.22553	0.035095	0.4039	0.036926	-0.10162	-0.002289	0.74799	-0.16159	-0.002899	0.00061
51.173	-0.006104	1.8877	-0.014496	-0.010681	-0.007019	-0.039368	0.36377	0.018463	0.021515	0.034943	-0.035553	0.007324	-0.01358	0.005188	0.1265	0.009613	0.010223	0.504	-0.047607	-0.040588	-0.24139	-0.42786	0.2771	0.11749	0.3389	0.029755	0.036469	-0.001221	-0.20966	0.10056	0.003662	-0.001373
51.174	-0.00946	1.884	-0.0177	-0.015259	0.003052	-0.030212	0.31387	0.012512	0.013885	0.06485	-0.1651	0.009613	-0.032654	-0.048065	0.28961	0.005951	-0.013428	0.67444	0.090027	-0.035248	-0.081024	-0.7309	0.38223	0.074463	0.14404	0.028992	0.21057	-0.001831	-1.4189	0.071564	-0.003357	-0.011444
51.175	-0.014343	1.8591	0.014343	-0.013885	0.007935	-0.032806	0.24811	0.001221	0.006714	0.07782	-0.17578	-0.000916	-0.054932	-0.09964	0.23636	0.001984	-0.071869	0.86151	0.35141	-0.024109	-0.26093	-0.59433	0.26688	0.040283	0.019073	0.048828	0.11383	-0.002747	-1.0376	-0.18387	-0.003967	-0.008545
51.176	-0.045624	1.7844	0.013123	0.005798	0.008392	-0.010834	0.23254	0.01236	0.008698	0.10223	-0.16357	-0.005341	-0.055237	-0.11597	0.014954	0.002441	-0.067291	1.1028	0.18051	0.055084	0.009308	-0.42114	0.22446	0.23529	-0.12329	0.019684	0.038605	-0.00946	0.54245	0.026855	-0.00885	-0.011444
51.177	-0.021667	1.7018	-0.046234	0.035706	0.010834	-0.03067	0.12268	0.009766	0.016022	0.099487	0.00473	0	-0.061035	-0.096436	-0.072784	0.00412	-0.055084	1.1691	-0.20462	0.07019	0.15915	-0.40619	-0.093842	0.22888	-0.3566	-0.033112	0.14587	-0.012512	-0.26703	0.14389	-0.00473	-0.008698
51.178	-0.02121	1.6385	-0.05722	0.079956	0.013123	-0.033112	-0.12543	0.006714	0.005798	0.051727	0.22919	-0.003204	-0.026398	-0.018005	0.093231	0.016785	-0.037537	1.3531	0.18066	0.004425	0.059204	-0.42862	-0.25696	0.2124	-0.39383	0.019379	0.383	-0.014496	-2.1318	0.11978	-0.001526	0.000916
51.179	-0.017242	1.5482	-0.019684	0.05661	0.008087	-0.0383	-0.34439	-0.00412	0.004578	0.033112	0.24948	-0.014496	-0.031433	0.069733	0.4715	0.010834	-0.038147	1.5218	0.38376	-0.013885	-0.030365	-0.32471	-0.20035	0.22171	-0.42465	-0.039215	0.50446	-0.013428	-0.13825	0.055542	-0.00061	-0.009308
51.18	-0.011902	1.4731	0.040131	0.016022	-0.003662	-0.024261	-0.31891	-0.007782	0.0177	0.077057	0.12848	-0.012207	-0.1474	0.11795	0.31174	-0.010223	-0.001678	1.6153	0.14175	-0.026855	-0.12909	-0.17471	-0.011597	-0.025482	-0.21194	-0.11749	0.31738	-0.015564	1.4928	0.002136	-0.003967	-0.00061
